<svg width="49" height="49" viewBox="0 0 49 49" fill="none" xmlns="http://www.w3.org/2000/svg">
<path d="M20.7978 46.694C23.2434 47.1004 25.7391 47.102 28.1851 46.6988M20.7978 46.694C15.5449 45.817 10.7708 43.1052 7.32923 39.0407C3.88766 34.9762 1.99929 29.8227 2 24.4967C2.00089 20.2041 3.22955 16.0013 5.54102 12.3842C7.85248 8.76718 11.1503 5.88682 15.0453 4.08302C18.9403 2.27922 23.27 1.62727 27.5234 2.20408C31.7768 2.7809 35.7766 4.56242 39.0506 7.33842C42.3246 10.1144 44.7363 13.7691 46.001 17.8711C47.2658 21.9731 47.3309 26.3514 46.1887 30.4892C45.0465 34.627 42.7445 38.3518 39.5545 41.2239C36.3645 44.0961 32.4195 45.9958 28.1851 46.6988M20.7978 46.694L20.7954 34.5189H16.1811C15.794 34.5189 15.4228 34.3651 15.1491 34.0914C14.8754 33.8177 14.7216 33.4465 14.7216 33.0594V28.5883C14.7216 28.2012 14.8754 27.83 15.1491 27.5562C15.4228 27.2825 15.794 27.1287 16.1811 27.1287H20.7954V19.5099C20.7954 17.5744 21.5642 15.7182 22.9327 14.3496C24.3012 12.9811 26.1573 12.2122 28.0927 12.2122H32.4954C33.1405 12.2122 33.7592 12.4685 34.2154 12.9247C34.6716 13.3809 34.9278 13.9996 34.9278 14.6448V17.1746C34.9278 17.8198 34.6716 18.4385 34.2154 18.8947C33.7592 19.3509 33.1405 19.6072 32.4954 19.6072H30.6176C29.9724 19.6072 29.3537 19.8635 28.8976 20.3197C28.4414 20.7759 28.1851 21.3946 28.1851 22.0398V27.1287H33.7724C33.9843 27.1287 34.1936 27.1748 34.3858 27.2638C34.578 27.3529 34.7486 27.4827 34.8856 27.6442C35.0226 27.8058 35.1228 27.9953 35.1793 28.1994C35.2357 28.4036 35.247 28.6177 35.2124 28.8267L34.6043 32.4853C34.5099 33.0533 34.2171 33.5694 33.7779 33.9418C33.3387 34.3141 32.7817 34.5187 32.2059 34.5189H28.1851V46.6988" stroke="#C9C9C9" stroke-width="3" stroke-linecap="round"/>
</svg>
