<svg width="47" height="51" viewBox="0 0 47 51" fill="none" xmlns="http://www.w3.org/2000/svg">
<path d="M24.0033 48.0336C22.0659 50.5547 18.0348 49.2391 17.958 46.0603L17.3463 20.8244C17.3311 20.2187 17.4794 19.6201 17.7757 19.0916C18.072 18.563 18.5053 18.1242 19.03 17.8211C19.5546 17.518 20.1513 17.362 20.7572 17.3694C21.363 17.3768 21.9557 17.5474 22.4728 17.8632L44.0231 31.0109C46.7361 32.6669 45.8608 36.8157 42.7102 37.2329L32.5057 38.5817C31.6202 38.6994 30.8165 39.1627 30.2739 39.8691L24.0033 48.0336Z" stroke="#A5FF15" stroke-width="2.5" stroke-linejoin="round"/>
<path d="M2 17.3617H8.39856M17.9964 8.39856V2M9.72434 9.72178L5.19928 5.19928M26.2684 9.72178L30.7935 5.19928" stroke="#A5FF15" stroke-width="2.5" stroke-linecap="round" stroke-linejoin="round"/>
</svg>
