<svg width="45" height="44" viewBox="0 0 45 44" fill="none" xmlns="http://www.w3.org/2000/svg">
<path d="M2 12.9179V7.71212C2 6.06456 2.65449 4.48449 3.81949 3.31949C4.98449 2.15449 6.56456 1.5 8.21212 1.5H13.4179M2 31.0821V36.2879C2 37.9354 2.65449 39.5155 3.81949 40.6805C4.98449 41.8455 6.56456 42.5 8.21212 42.5H13.4179M43 12.9179V7.71212C43 6.06456 42.3455 4.48449 41.1805 3.31949C40.0155 2.15449 38.4354 1.5 36.7879 1.5H31.5821M43 31.0821V36.2879C43 37.9354 42.3455 39.5155 41.1805 40.6805C40.0155 41.8455 38.4354 42.5 36.7879 42.5H31.5821" stroke="#A5FF15" stroke-width="2.5" stroke-linecap="round" stroke-linejoin="round"/>
</svg>
