<svg width="62" height="59" viewBox="0 0 62 59" fill="none" xmlns="http://www.w3.org/2000/svg">
<path d="M26.7307 4.42478C27.1657 3.68699 27.7889 3.07484 28.538 2.64937C29.2871 2.2239 30.136 2 31 2C31.864 2 32.7129 2.2239 33.462 2.64937C34.2111 3.07484 34.8343 3.68699 35.2693 4.42478L41.2582 14.5828C41.603 15.1691 42.0675 15.678 42.6221 16.0771C43.1768 16.4762 43.8095 16.7568 44.4799 16.9009L56.1086 19.3884C56.9526 19.5697 57.7338 19.9666 58.3742 20.5394C59.0147 21.1122 59.492 21.841 59.7587 22.653C60.0253 23.465 60.0719 24.3318 59.8939 25.1672C59.7158 26.0025 59.3193 26.7772 58.7439 27.4139L50.8213 36.1817C50.3643 36.6871 50.0187 37.281 49.8066 37.9256C49.5945 38.5702 49.5205 39.2514 49.5893 39.9258L50.7851 51.6238C50.8722 52.4736 50.7324 53.331 50.3795 54.1106C50.0266 54.8903 49.473 55.5648 48.7739 56.0669C48.0749 56.569 47.2548 56.8812 46.3956 56.9722C45.5363 57.0632 44.668 56.9299 43.8771 56.5856L32.993 51.8452C32.365 51.5717 31.6863 51.4304 31 51.4304C30.3137 51.4304 29.635 51.5717 29.007 51.8452L18.1229 56.5856C17.332 56.9299 16.4637 57.0632 15.6044 56.9722C14.7452 56.8812 13.9251 56.569 13.2261 56.0669C12.527 55.5648 11.9734 54.8903 11.6205 54.1106C11.2676 53.331 11.1278 52.4736 11.2149 51.6238L12.4107 39.9258C12.4799 39.2516 12.4064 38.5706 12.1949 37.926C11.9834 37.2814 11.6384 36.6874 11.182 36.1817L3.25607 27.4139C2.68066 26.7772 2.28417 26.0025 2.10612 25.1672C1.92807 24.3318 1.97469 23.465 2.24133 22.653C2.50797 21.841 2.98531 21.1122 3.62576 20.5394C4.26621 19.9666 5.0474 19.5697 5.89144 19.3884L17.52 16.9009C18.1908 16.7576 18.8239 16.4777 19.3792 16.0791C19.9345 15.6806 20.3996 15.1721 20.7451 14.5861L26.7307 4.42478Z" stroke="#A5FF15" stroke-width="2.5" stroke-linecap="round" stroke-linejoin="round"/>
</svg>
