<svg width="40" height="43" viewBox="0 0 40 43" fill="none" xmlns="http://www.w3.org/2000/svg">
<path d="M22.6585 18.4556L10.8884 2.59564C10.7519 2.41137 10.5715 2.26117 10.3623 2.15755C10.1531 2.05393 9.92115 1.99991 9.6858 2H3.47367C3.20291 2.00033 2.93746 2.07227 2.70639 2.20792C2.47532 2.34357 2.28755 2.53772 2.16362 2.7691C2.0397 3.00048 1.9844 3.26017 2.00379 3.51973C2.02318 3.7793 2.1165 4.02874 2.27355 4.24073L17.3415 24.5444M22.6585 18.4556L37.7265 38.7593C37.8835 38.9713 37.9768 39.2207 37.9962 39.4803C38.0156 39.7398 37.9603 39.9995 37.8364 40.2309C37.7125 40.4623 37.5247 40.6564 37.2936 40.7921C37.0625 40.9277 36.7971 40.9997 36.5263 41H30.3142C30.0789 41.0001 29.8469 40.9461 29.6377 40.8424C29.4285 40.7388 29.2481 40.5886 29.1116 40.4044L17.3415 24.5444M22.6585 18.4556L37.0256 2M17.3415 24.5444L2.97444 41" stroke="#C9C9C9" stroke-width="3" stroke-linecap="round" stroke-linejoin="round"/>
</svg>
