<svg
      width="89"
      height="85"
      viewBox="0 0 89 85"
      fill='000000'
      xmlns="http://www.w3.org/2000/svg"
    >
      <path
        d="M32.2702 40.9438L37.0172 32.7217C37.5531 31.7935 38.5435 31.2217 39.6153 31.2217H49.1093C50.1811 31.2217 51.1715 31.7935 51.7074 32.7217L56.4544 40.9438C56.9903 41.872 56.9903 43.0156 56.4544 43.9438L51.7074 52.1659C51.1715 53.0941 50.1811 53.6659 49.1093 53.6659H39.6153C38.5435 53.6659 37.5531 53.0941 37.0172 52.1659L32.2702 43.9438C31.7343 43.0156 31.7343 41.872 32.2702 40.9438Z"
        stroke='000000'
        stroke-width="4"
      />
      <path
        fill-rule="evenodd"
        clip-rule="evenodd"
        d="M36 5.21263L32.2418 11.7221C31.7059 12.6503 31.7059 13.7939 32.2418 14.7221L36.9888 22.9442C37.5247 23.8724 38.5151 24.4442 39.5869 24.4442H49.0809C50.1527 24.4442 51.1431 23.8724 51.679 22.9442L56.426 14.7221C56.9619 13.7939 56.9619 12.6503 56.426 11.7221L51.9996 4.0554V5.22218H52.0005V9.23921L50.4005 7.23067H37.6L36 9.23921V7.23067H36V5.21263ZM36.0809 1.43495C35.7635 1.74705 35.4853 2.10407 35.2567 2.5L30.5097 10.7221C29.6166 12.2691 29.6166 14.1751 30.5097 15.7221L35.2567 23.9442C36.1499 25.4912 37.8005 26.4442 39.5869 26.4442H41.2805V27.4896C41.2805 28.0419 41.7282 28.4896 42.2805 28.4896H46.3875C46.9398 28.4896 47.3875 28.0419 47.3875 27.4896V26.4442H49.0809C50.8672 26.4442 52.5179 25.4912 53.411 23.9442L58.1581 15.7221C59.0512 14.1751 59.0512 12.2691 58.1581 10.7221L53.411 2.5C52.9281 1.66355 52.2237 1.00076 51.3962 0.568362C51.0358 0.216685 50.543 0 49.9996 0H49.0809H39.5869H38C37.0917 0 36.3248 0.605535 36.0809 1.43495Z"
        fill='000000'
      />
      <path
        fill-rule="evenodd"
        clip-rule="evenodd"
        d="M36 79.4615L32.2418 72.9521C31.7059 72.0239 31.7059 70.8803 32.2418 69.9521L36.9888 61.73C37.5247 60.8018 38.5151 60.23 39.5869 60.23H49.0809C50.1527 60.23 51.1431 60.8018 51.679 61.73L56.426 69.9521C56.9619 70.8803 56.9619 72.0239 56.426 72.9521L51.9996 80.6188V78.6001H52.0005V75.0044L50.4005 76.8023H37.6L36 75.0044V76.8023H36V79.4615ZM30.5097 73.9521C29.6166 72.4051 29.6166 70.4991 30.5097 68.9521L35.2567 60.73C36.1499 59.183 37.8005 58.23 39.5869 58.23H41.2805V57.1846C41.2805 56.6323 41.7282 56.1846 42.2805 56.1846H46.3875C46.9398 56.1846 47.3875 56.6323 47.3875 57.1846V58.23H49.0809C50.8672 58.23 52.5179 59.183 53.411 60.73L58.1581 68.9521C59.0512 70.4991 59.0512 72.4051 58.1581 73.9521L53.411 82.1742C52.5179 83.7212 50.8672 84.6742 49.0809 84.6742H39.5869C37.8005 84.6742 36.1499 83.7212 35.2567 82.1742L30.5097 73.9521Z"
        fill='000000'
      />
      <path
        fill-rule="evenodd"
        clip-rule="evenodd"
        d="M73.1065 17.564L65.189 17.564C64.1172 17.564 63.1268 18.1358 62.5909 19.064L57.8439 27.2861C57.308 28.2143 57.308 29.3579 57.8439 30.2861L62.5909 38.5082C63.1268 39.4364 64.1172 40.0082 65.189 40.0082L74.683 40.0082C75.7548 40.0082 76.7452 39.4364 77.2811 38.5082L81.5069 31.1889L78.0925 33.1602L78.0924 33.16L76.5351 34.059L77.2922 31.7741L70.8927 20.6898L68.5354 20.2029L71.6491 18.4052L71.6492 18.4054L73.1065 17.564ZM65.189 15.564C63.4027 15.564 61.752 16.517 60.8589 18.064L56.1118 26.2861C55.2187 27.8331 55.2187 29.7391 56.1118 31.2861L56.9585 32.7525L56.0528 33.2754C55.5745 33.5515 55.4107 34.1631 55.6868 34.6414L57.7403 38.1982C58.0165 38.6765 58.628 38.8404 59.1063 38.5642L60.012 38.0414L60.8589 39.5082C61.752 41.0552 63.4027 42.0082 65.189 42.0082L74.683 42.0082C76.4694 42.0082 78.12 41.0552 79.0132 39.5082L83.7602 31.2861C84.6533 29.7391 84.6533 27.8331 83.7602 26.2861L79.0132 18.064C78.12 16.517 76.4694 15.564 74.683 15.564L65.189 15.564Z"
        fill='000000'
      />
      <path
        fill-rule="evenodd"
        clip-rule="evenodd"
        d="M72.4963 68.5127L64.5796 68.5127C63.5078 68.5127 62.5174 67.9409 61.9815 67.0127L57.2345 58.7906C56.6986 57.8624 56.6986 56.7188 57.2345 55.7906L61.9815 47.5685C62.5174 46.6403 63.5078 46.0685 64.5796 46.0685L74.0737 46.0685C75.1455 46.0685 76.1358 46.6403 76.6717 47.5685L80.8977 54.888L79.0393 53.8151L79.0394 53.815L75.9256 52.0172L76.6823 54.3012L70.2821 65.3868L67.9249 65.8736L71.0387 67.6714L71.0388 67.6712L72.4963 68.5127ZM64.5796 70.5127C62.7933 70.5127 61.1427 69.5597 60.2495 68.0127L55.5025 59.7906C54.6093 58.2436 54.6093 56.3376 55.5025 54.7906L56.3491 53.3242L55.4435 52.8013C54.9652 52.5251 54.8013 51.9135 55.0774 51.4352L57.1309 47.8785C57.4071 47.4002 58.0187 47.2363 58.497 47.5124L59.4026 48.0353L60.2495 46.5685C61.1427 45.0215 62.7933 44.0685 64.5796 44.0685L74.0737 44.0685C75.86 44.0685 77.5106 45.0215 78.4038 46.5685L83.1508 54.7906C84.044 56.3376 84.044 58.2436 83.1508 59.7906L78.4038 68.0127C77.5106 69.5597 75.86 70.5127 74.0737 70.5127L64.5796 70.5127Z"
        fill='000000'
      />
      <path
        fill-rule="evenodd"
        clip-rule="evenodd"
        d="M15.3823 16.9532L23.4448 16.9532C24.5166 16.9532 25.507 17.525 26.0429 18.4532L30.7899 26.6753C31.3258 27.6035 31.3258 28.7471 30.7899 29.6753L26.0429 37.8974C25.507 38.8256 24.5166 39.3974 23.4448 39.3974L13.9508 39.3974C12.879 39.3974 11.8886 38.8256 11.3527 37.8974L7.19916 30.7033L8.04826 31.1935L8.04815 31.1937L11.1625 32.9918L10.4056 30.7079L16.8056 19.6227L19.1637 19.1359L16.0493 17.3379L16.0491 17.3382L15.3823 16.9532ZM23.4448 14.9532C25.2311 14.9532 26.8818 15.9062 27.7749 17.4532L32.5219 25.6753C33.4151 27.2223 33.4151 29.1283 32.5219 30.6753L31.6753 32.1417L32.581 32.6646C33.0593 32.9408 33.2231 33.5523 32.947 34.0306L30.8935 37.5874C30.6173 38.0657 30.0057 38.2296 29.5275 37.9534L28.6218 37.4306L27.7749 38.8974C26.8818 40.4444 25.2311 41.3974 23.4448 41.3974L13.9508 41.3974C12.1644 41.3974 10.5138 40.4444 9.62063 38.8974L4.87361 30.6753C3.98044 29.1283 3.98044 27.2223 4.87361 25.6753L9.62063 17.4532C10.5138 15.9062 12.1644 14.9532 13.9508 14.9532L23.4448 14.9532Z"
        fill='000000'
      />
      <path
        fill-rule="evenodd"
        clip-rule="evenodd"
        d="M16.3474 68.8179L24.0571 68.8179C25.1289 68.8179 26.1193 68.2461 26.6552 67.3179L31.4022 59.0958C31.9381 58.1676 31.9381 57.024 31.4022 56.0958L26.6552 47.8738C26.1193 46.9456 25.1289 46.3738 24.0571 46.3738L14.5631 46.3738C13.4913 46.3738 12.5009 46.9456 11.965 47.8738L7.63556 55.3726L9.0478 54.5572L9.04774 54.5571L12.1616 52.7593L11.4048 55.0435L17.8049 66.1289L20.1623 66.6157L17.0484 68.4135L17.0483 68.4133L16.3474 68.8179ZM24.0571 70.8179C25.8434 70.8179 27.4941 69.8649 28.3872 68.3179L33.1343 60.0958C34.0274 58.5488 34.0274 56.6428 33.1343 55.0958L32.2876 53.6294L33.1933 53.1065C33.6716 52.8304 33.8354 52.2188 33.5593 51.7405L31.5058 48.1837C31.2296 47.7054 30.6181 47.5415 30.1398 47.8177L29.2341 48.3406L28.3872 46.8738C27.4941 45.3268 25.8434 44.3738 24.0571 44.3738L14.5631 44.3738C12.7767 44.3738 11.1261 45.3268 10.2329 46.8738L5.48591 55.0958C4.59275 56.6429 4.59275 58.5488 5.48591 60.0958L10.2329 68.3179C11.1261 69.8649 12.7767 70.8179 14.5631 70.8179L24.0571 70.8179Z"
        fill='000000'
      />
    </svg>