<svg width="32" height="32" viewBox="0 0 32 32" fill="none" xmlns="http://www.w3.org/2000/svg">
<rect width="32" height="32" fill="#101010"/>
<path d="M4.29811 17.0187C4.1107 17.0187 3.94079 16.9813 3.78837 16.9063C3.63595 16.8313 3.50476 16.7301 3.39482 16.6027C3.28488 16.4728 3.19992 16.3278 3.13995 16.1679C3.07998 16.0055 3.05 15.8393 3.05 15.6694C3.05 15.492 3.08123 15.3234 3.1437 15.1634C3.20617 15.001 3.29362 14.8574 3.40606 14.7324C3.521 14.605 3.65469 14.505 3.80711 14.4326C3.95953 14.3576 4.12444 14.3201 4.30185 14.3201C4.48926 14.3201 4.65917 14.3589 4.81159 14.4363C4.96401 14.5138 5.09395 14.6175 5.20139 14.7474C5.31133 14.8773 5.39629 15.0223 5.45626 15.1822C5.51623 15.3421 5.54621 15.5058 5.54621 15.6732C5.54621 15.8506 5.51498 16.0205 5.45251 16.1829C5.39004 16.3428 5.30259 16.4865 5.19015 16.6139C5.0777 16.7389 4.94527 16.8376 4.79285 16.91C4.64043 16.9825 4.47551 17.0187 4.29811 17.0187ZM3.31236 15.6694C3.31236 15.8144 3.3361 15.9543 3.38358 16.0892C3.43105 16.2217 3.49852 16.3403 3.58597 16.4453C3.67343 16.5477 3.77712 16.6302 3.89706 16.6927C4.0195 16.7526 4.15318 16.7826 4.29811 16.7826C4.45053 16.7826 4.58671 16.7514 4.70664 16.6889C4.82908 16.6239 4.93278 16.539 5.01773 16.434C5.10519 16.3266 5.17141 16.2067 5.21638 16.0742C5.26136 15.9418 5.28385 15.8069 5.28385 15.6694C5.28385 15.5245 5.26011 15.3858 5.21263 15.2534C5.16516 15.121 5.09644 15.0023 5.00649 14.8973C4.91904 14.7924 4.81534 14.7099 4.6954 14.65C4.57546 14.59 4.44303 14.56 4.29811 14.56C4.14818 14.56 4.012 14.5912 3.88957 14.6537C3.76963 14.7162 3.66593 14.8011 3.57848 14.9086C3.49352 15.0135 3.4273 15.1322 3.37983 15.2646C3.33485 15.3971 3.31236 15.532 3.31236 15.6694Z" fill="#A5FF15"/>
<path d="M7.73754 14.8224V17H7.47518V14.3389H7.69257L9.43917 16.5577V14.3426H9.70153V17H9.45791L7.73754 14.8224Z" fill="#A5FF15"/>
<path d="M13.1794 17.0982V17.3306H11.3916V14.6694H13.1457V14.9018H11.3916V15.8613H12.9545V16.0825H11.3916V17.0982H13.1794Z" fill="#A5FF15"/>
<path d="M14.4287 17.3306V14.6694H15.5306C15.6456 14.6694 15.7505 14.6932 15.8455 14.7406C15.9429 14.7881 16.0266 14.8531 16.0966 14.9355C16.1666 15.0155 16.2215 15.1055 16.2615 15.2054C16.3015 15.3029 16.3215 15.4028 16.3215 15.5053C16.3215 15.6502 16.289 15.7876 16.224 15.9175C16.1616 16.045 16.0729 16.1487 15.9579 16.2286C15.843 16.3086 15.7081 16.3486 15.5531 16.3486H14.6911V17.3306H14.4287ZM14.4287 16.1162H15.5419C15.6468 16.1162 15.738 16.0875 15.8155 16.03C15.893 15.9725 15.9529 15.8976 15.9954 15.8051C16.0379 15.7126 16.0591 15.6127 16.0591 15.5053C16.0591 15.3953 16.0341 15.2941 15.9842 15.2017C15.9342 15.1092 15.868 15.0367 15.7855 14.9843C15.7056 14.9293 15.6168 14.9018 15.5194 14.9018H14.4287V16.1162Z" fill="#A5FF15"/>
<path d="M17.9049 17V14.3389H18.1672V17H17.9049Z" fill="#A5FF15"/>
<path d="M20.1389 14.3389L21.0085 15.497L21.8743 14.3389H22.1704L21.1509 15.6882L22.1404 17H21.8443L21.0085 15.8793L20.1689 17H19.869L20.8585 15.6882L19.8391 14.3389H20.1389Z" fill="#A5FF15"/>
<path d="M25.8572 17.0982V17.3306H24.0693V14.6694H25.8234V14.9018H24.0693V15.8613H25.6323V16.0825H24.0693V17.0982H25.8572Z" fill="#A5FF15"/>
<path d="M27.44 17V14.3389H27.7024V16.7676H29.2391V17H27.44Z" fill="#A5FF15"/>
</svg>
