<svg width="45" height="45" viewBox="0 0 45 45" fill="none" xmlns="http://www.w3.org/2000/svg">
<path d="M29.7778 2H15.285C7.94791 2 2 7.94791 2 15.285V29.7778C2 37.1149 7.94791 43.0628 15.285 43.0628H29.7778C37.1149 43.0628 43.0628 37.1149 43.0628 29.7778V15.285C43.0628 7.94791 37.1149 2 29.7778 2Z" stroke="#C9C9C9" stroke-width="3" stroke-linecap="round" stroke-linejoin="round"/>
<path d="M22.5314 31.2426C27.3419 31.2426 31.2416 27.3429 31.2416 22.5324C31.2416 17.7219 27.3419 13.8223 22.5314 13.8223C17.721 13.8223 13.8213 17.7219 13.8213 22.5324C13.8213 27.3429 17.721 31.2426 22.5314 31.2426Z" stroke="#C9C9C9" stroke-width="3" stroke-linecap="round" stroke-linejoin="round"/>
<path d="M34.3532 13.2005C35.7272 13.2005 36.8411 12.0866 36.8411 10.7125C36.8411 9.33849 35.7272 8.22461 34.3532 8.22461C32.9791 8.22461 31.8652 9.33849 31.8652 10.7125C31.8652 12.0866 32.9791 13.2005 34.3532 13.2005Z" fill="#C9C9C9"/>
</svg>
