<svg width="59" height="59" viewBox="0 0 59 59" fill="none" xmlns="http://www.w3.org/2000/svg">
<path d="M27.2112 3.55739C28.0295 1.48087 30.9705 1.48087 31.7888 3.55739L38.086 19.5235C38.2094 19.8381 38.3963 20.1239 38.635 20.3632C38.8737 20.6024 39.1591 20.7899 39.4734 20.914L55.4426 27.2112C57.5191 28.0295 57.5191 30.9705 55.4426 31.7888L39.4765 38.086C39.1619 38.2094 38.8761 38.3963 38.6368 38.635C38.3976 38.8737 38.2101 39.1591 38.086 39.4734L31.7888 55.4426C30.9705 57.5191 28.0295 57.5191 27.2112 55.4426L20.914 39.4765C20.7906 39.1619 20.6037 38.8761 20.365 38.6368C20.1263 38.3976 19.8409 38.2101 19.5266 38.086L3.55739 31.7888C1.48087 30.9705 1.48087 28.0295 3.55739 27.2112L19.5235 20.914C19.8381 20.7906 20.1239 20.6037 20.3632 20.365C20.6024 20.1263 20.7899 19.8409 20.914 19.5266L27.2112 3.55739Z" stroke="#A5FF15" stroke-width="2.5" stroke-linecap="round" stroke-linejoin="round"/>
<path d="M11.3305 8.73603C11.3305 10.1694 10.1684 11.3314 8.73505 11.3314C7.30165 11.3314 6.13965 10.1694 6.13965 8.73603C6.13965 7.30263 7.30165 6.14062 8.73505 6.14062C10.1684 6.14062 11.3305 7.30263 11.3305 8.73603Z" fill="black" stroke="#A5FF15" stroke-width="2.5"/>
<path d="M52.8606 51.0334C52.8606 52.042 52.043 52.8597 51.0343 52.8597C50.0257 52.8597 49.208 52.042 49.208 51.0334C49.208 50.0247 50.0257 49.207 51.0343 49.207C52.043 49.207 52.8606 50.0247 52.8606 51.0334Z" fill="black" stroke="#A5FF15" stroke-width="2.5"/>
</svg>
