<svg width="41" height="41" viewBox="0 0 41 41" fill="none" xmlns="http://www.w3.org/2000/svg">
<path fill-rule="evenodd" clip-rule="evenodd" d="M12.3472 34.5938V15.7544H6.40625V34.5938H12.3472ZM9.59855 12.9026C11.5789 12.9026 12.8125 11.4602 12.8125 9.65442C12.78 7.81562 11.5789 6.40625 9.63102 6.40625C7.68317 6.40625 6.41707 7.81562 6.41707 9.65442C6.41707 11.4602 7.65071 12.9026 9.55527 12.9026H9.59855Z" fill="#C9C9C9"/>
<path fill-rule="evenodd" clip-rule="evenodd" d="M27.8245 15.375C24.7174 15.375 23.3828 17.1761 22.5286 18.428V15.8143H16.6562V34.5938H22.5286V23.8971C22.5286 23.348 22.5714 22.7989 22.7315 22.4146C23.1586 21.3163 24.1195 20.1852 25.7424 20.1852C27.8672 20.1852 28.7214 21.8654 28.7214 24.3254V34.5938H34.5938V23.6226C34.5938 17.9888 31.6896 15.375 27.8245 15.375Z" fill="#C9C9C9"/>
<path d="M37.7212 0H3.50299C1.63402 0 0 1.34566 0 3.19328V37.4863C0 39.3446 1.63402 41 3.50299 41H37.7105C39.5902 41 40.9999 39.3339 40.9999 37.4863V3.19328C41.0106 1.34566 39.5902 0 37.7212 0ZM37.3795 37.5931H3.74863C3.55639 37.5931 3.41755 37.4436 3.41755 37.262V3.63115C3.41755 3.51368 3.52435 3.41756 3.63115 3.41756H37.3795C37.4863 3.41756 37.5931 3.52436 37.5931 3.63115V37.3795C37.5931 37.4756 37.497 37.5931 37.3795 37.5931Z" fill="#C9C9C9"/>
</svg>
