<svg width="44" height="44" viewBox="0 0 44 44" fill="none" xmlns="http://www.w3.org/2000/svg">
<path d="M2.63067 16.8101C3.65705 12.9791 5.79647 9.53853 8.77834 6.92347C11.7602 4.30841 15.4506 2.63636 19.3828 2.11877C23.315 1.60118 27.3124 2.2613 30.8694 4.01566C34.4264 5.77002 37.3833 8.5398 39.3661 11.9747L40.1338 13.7141M40.1338 13.7141C40.6697 13.6256 41.1568 13.3495 41.5081 12.9353C41.8594 12.521 42.0521 11.9954 42.0519 11.4522V1.94868M40.1338 13.7141C40.0116 13.734 39.8871 13.7439 39.7603 13.7439H30.2567M1.94775 42.0528V32.5493C1.94775 31.9415 2.1892 31.3586 2.61897 30.9289C3.04874 30.4991 3.63163 30.2576 4.23942 30.2576M4.23942 30.2576H13.743M4.23942 30.2576L4.63359 32.0268C6.61637 35.4617 9.57325 38.2315 13.1303 39.9859C16.6873 41.7402 20.6847 42.4004 24.6169 41.8828C28.5491 41.3652 32.2395 39.6931 35.2213 37.0781C38.2032 34.463 40.3426 31.0224 41.369 27.1914" stroke="#A5FF15" stroke-width="2.5" stroke-linecap="round" stroke-linejoin="round"/>
</svg>
